# Generated by NanoCAD
o model_group
mtllib robot.mtl
usemtl model_texture

# surface normals
vn 0.71 0 -0.71
vn 0 0 -1
vn -0.71 0 -0.71
vn -1 0 0
vn -0.71 0 0.71
vn 0 0 1
vn 0.71 0 0.71
vn 1 0 0
vn 0 1 -0
vn -0 1 -0
vn -0 1 0
vn -0 1 -0
vn -0 1 0
vn 0 1 0
vn 0 1 0
vn 0 1 0
vn 0 1 0
vn 0 1 0

# texture coordinates
vt 0.72 0.62
vt 0.78 0.75
vt 0.66 0.75
vt 0.66 0.62
vt 0.78 0.62
vt 0.28 0.75
vt 0.28 0.62
vt 0.34 0.94
vt 0.31 0.94
vt 0.31 0.91
vt 0.34 0.91
vt 0.38 0.88
vt 0.34 0.88
vt 0.41 0.22
vt 0.41 0.56
vt 0.03 0.56
vt 0.03 0.22
vt 0.25 0.75
vt 0.25 1
vt 0 1
vt 0 0.75

# vertex positions
v 0.3 0 -0.5
v 0.3 0.2 -0.5
v 0.5 0.2 -0.3
v 0.5 0 -0.3
v -0.3 0 -0.5
v -0.3 0.2 -0.5
v -0.5 0 -0.3
v -0.5 0.2 -0.3
v -0.3 0.2 -0.5
v -0.3 0 -0.5
v -0.5 0 0.3
v -0.5 0.2 0.3
v -0.3 0 0.5
v -0.3 0.2 0.5
v 0.3 0 0.5
v 0.3 0.2 0.5
v 0.5 0 0.3
v 0.5 0.2 0.3
v 0.5 0 -0.3
v 0.5 0.2 -0.3
v 0.3 0.2 0.3
v 0.3 0.2 -0.3
v 0.5 0.2 -0.3
v 0.5 0.2 0.3
v 0.3 0.2 0.3
v -0.5 0.2 0.3
v -0.3 0.2 0.3
v -0.3 0.2 -0.3
v -0.5 0.2 -0.3
v -0.3 0.2 -0.3
v -0.3 0.2 0.3
v -0.5 0.2 0.3
v -0.3 0.2 0.5
v -0.3 0.2 0.5
v 0.3 0.2 0.5
v 0.3 0.2 0.3
v -0.3 0.2 0.3
v -0.3 0.2 -0.3
v 0.3 0.2 -0.3
v -0.3 0.2 -0.5
v -0.3 0.2 0.3
v 0.3 0.2 0.3
v 0.3 0.2 -0.3
v -0.3 0.2 -0.3
v -0.7 0 0.5
v -0.3 -0 0.5
v -0.3 -0 0.1
v -0.7 0 0.1
v -0.7 0 -0.1
v -0.3 -0 -0.1
v -0.3 -0 -0.5
v -0.7 0 -0.5

# fragments
f 1/1/1 2/2/1 3/3/1 4/4/1
f 5/5/2 6/2/2 2/3/2 1/4/2
f 7/5/3 8/2/3 9/3/3 10/4/3
f 11/4/4 12/3/4 8/6/4 7/7/4
f 13/5/5 14/2/5 12/3/5 11/4/5
f 15/5/6 16/2/6 14/3/6 13/4/6
f 17/5/7 18/2/7 16/3/7 15/4/7
f 19/5/8 20/2/8 18/3/8 17/4/8
f 21/8/9 18/9/9 20/10/9 22/11/9
f 2/8/10 22/10/10 23/11/10
f 24/12/11 25/9/11 16/13/11
f 26/9/9 27/10/9 28/11/9 29/8/9
f 9/11/12 29/9/12 30/13/12
f 31/11/13 32/11/13 33/13/13
f 34/8/14 35/9/14 36/10/14 37/11/14
f 38/10/15 39/8/15 2/8/15 40/10/15
f 41/14/16 42/15/16 43/16/16 44/17/16
f 45/18/17 46/19/17 47/20/17 48/21/17
f 49/18/18 50/19/18 51/20/18 52/21/18
